<?xml version="1.0" encoding="UTF-8"?>
<svg xmlns="http://www.w3.org/2000/svg" viewBox="0 0 458.75 387.06"><defs><style>.cls-1{fill:#f0f0f0;}.cls-2{fill:#e0e0e0;}.cls-3{fill:#00c8ac;}.cls-19,.cls-4{opacity:0.1;}.cls-5{fill:#fff;}.cls-6{opacity:0.2;}.cls-7{fill:#ebebeb;}.cls-8{fill:#fafafa;}.cls-9{fill:#263238;}.cls-10,.cls-11{fill:none;stroke-linecap:round;stroke-miterlimit:10;stroke-width:0.57px;}.cls-10{stroke:#ebebeb;}.cls-11{stroke:#00c8ac;}.cls-12{opacity:0.25;}.cls-13{fill:#455a64;}.cls-14{fill:#f28f8f;}.cls-15{fill:#ffa8a7;}.cls-16{fill:#37474f;}.cls-17{fill:#f5f5f5;}.cls-18{opacity:0.3;}</style></defs><title>2810817</title><g id="Coffee"><path id="Floor-2" data-name="Floor" class="cls-1" d="M69.66,351.53c89.58,51.56,234.81,51.56,324.39,0s89.57-135.17,0-186.74-234.81-51.56-324.39,0S-19.92,300,69.66,351.53Z" transform="translate(-2.48 -3.14)"/><path id="Shadows" class="cls-2" d="M55.26,295.73l139,80.25a10,10,0,0,0,9,0L414.16,254.23c2.49-1.44,2.49-3.77,0-5.21l-139-80.25a10,10,0,0,0-9,0L55.26,290.53C52.77,292,52.77,294.29,55.26,295.73Z" transform="translate(-2.48 -3.14)"/><path id="Shadow-2" data-name="Shadow" class="cls-2" d="M396.57,175.49c-16.41-6.57-42.57-6.57-58.42,0s-15.86,17.21,0,23.78,42,6.57,58.42,0S413,182.06,396.57,175.49Z" transform="translate(-2.48 -3.14)"/><ellipse id="Shadow-3" data-name="Shadow" class="cls-2" cx="64.27" cy="230.85" rx="33.63" ry="16.03"/><g id="Plants-2" data-name="Plants"><path class="cls-3" d="M46.21,204.94c-.51-6.35-5.4-17.18-12.66-24.9s-18.85-11.43-26-8.32c-6.67,2.89-5.2,11.83,3.6,17.12S33,200.61,37.52,210.62l8.69,12Z" transform="translate(-2.48 -3.14)"/><path class="cls-4" d="M46.21,204.94c-.51-6.35-5.4-17.18-12.66-24.9s-18.85-11.43-26-8.32c-6.67,2.89-5.2,11.83,3.6,17.12S33,200.61,37.52,210.62l8.69,12Z" transform="translate(-2.48 -3.14)"/><path class="cls-5" d="M47.13,213.26l.14,0a.45.45,0,0,0,.28-.56c-7.14-21.54-27.39-36-35.79-37.36a.44.44,0,0,0-.51.36.45.45,0,0,0,.37.51c8.22,1.35,28.06,15.55,35.09,36.77A.44.44,0,0,0,47.13,213.26Z" transform="translate(-2.48 -3.14)"/><path class="cls-3" d="M45.26,231.16c-1.3-3.49-6.14-9-13.58-13.33-8.24-4.75-18.31-6.43-20.92-10.44-3.14-4.81.72-9.91,8.81-9.56S42.64,208,46.21,224.26Z" transform="translate(-2.48 -3.14)"/><path class="cls-5" d="M45.64,224.55a.45.45,0,0,0,.19-.05.44.44,0,0,0,.2-.59c-7-13.87-21.67-20.35-29.26-22a.45.45,0,0,0-.53.34.44.44,0,0,0,.34.52c7.44,1.61,21.84,8,28.66,21.54A.46.46,0,0,0,45.64,224.55Z" transform="translate(-2.48 -3.14)"/></g><g id="Notebook-2" data-name="Notebook"><path class="cls-3" d="M159.43,226v-2.74L263.33,166a5.4,5.4,0,0,1,4.92,0L412.33,247.3V250a1.72,1.72,0,0,1-1,1.42l-103.9,60Z" transform="translate(-2.48 -3.14)"/><path class="cls-4" d="M412.33,250V247.3l-1.76-1L307.41,308.69v2.74l103.9-60A1.72,1.72,0,0,0,412.33,250Z" transform="translate(-2.48 -3.14)"/><path class="cls-3" d="M159.43,223.25l103.9-60a5.4,5.4,0,0,1,4.92,0l143.06,82.59c1.36.78,1.36,2.06,0,2.84l-103.9,60Z" transform="translate(-2.48 -3.14)"/><polygon class="cls-6" points="304.93 308.29 304.93 305.55 156.95 220.11 156.95 222.85 304.93 308.29"/><path class="cls-3" d="M161.8,227.31l-105,55.3L54.61,286v2.74a4,4,0,0,0,2.16,3.39l138.42,79.92a7.67,7.67,0,0,0,7.21,0l102.69-59.28V310Z" transform="translate(-2.48 -3.14)"/><path class="cls-4" d="M161.8,227.31l-105,55.3L54.61,286v2.74a4,4,0,0,0,2.16,3.39l138.42,79.92a7.67,7.67,0,0,0,7.21,0l102.69-59.28V310Z" transform="translate(-2.48 -3.14)"/><path class="cls-3" d="M198.8,370.21a7.4,7.4,0,0,1-3.61-.89L56.77,289.4a3.75,3.75,0,0,1,0-6.79l100.41-58L305.09,310,202.4,369.32A7.38,7.38,0,0,1,198.8,370.21Z" transform="translate(-2.48 -3.14)"/><path class="cls-7" d="M157.18,216.61,57.91,273.92l-1,1.43V286h0a1.72,1.72,0,0,0,1,1.42l138.42,79.93a5.49,5.49,0,0,0,4.93,0L300.53,310V299.38Z" transform="translate(-2.48 -3.14)"/><path class="cls-1" d="M300.54,299.38l-1.24.72-16.16,9.32-3,1.75-78.87,45.52a5.42,5.42,0,0,1-4.93,0L57.9,276.77c-1.35-.79-1.35-2.06,0-2.85l1.32-.76,98-56.55,142.13,82.06.3.18Z" transform="translate(-2.48 -3.14)"/><path class="cls-2" d="M198.8,357.29v10.65a4.92,4.92,0,0,1-2.46-.59L57.9,287.42a1.72,1.72,0,0,1-1-1.42V275.34a1.75,1.75,0,0,0,1,1.43l138.44,79.92A4.93,4.93,0,0,0,198.8,357.29Z" transform="translate(-2.48 -3.14)"/><path class="cls-8" d="M300.54,298l-17.87,10.31-2.8,1.62-78.6,45.38a5.42,5.42,0,0,1-4.93,0l-124-71.57c-1.11-.61-2.15-1.22-3.12-1.8-5-3.07-8.08-5.82-10-8.74l-.24-.37a2,2,0,0,1-.3-.74,2.21,2.21,0,0,1,1.73-2.5,45.86,45.86,0,0,0,9.34-3.89l.13-.07,87.3-50.4Z" transform="translate(-2.48 -3.14)"/><path class="cls-4" d="M282,296.71c-1.27.74-1.27,1.93,0,2.67a5,5,0,0,0,4.6,0c1.28-.74,1.28-1.93,0-2.67A5,5,0,0,0,282,296.71Z" transform="translate(-2.48 -3.14)"/><path class="cls-9" d="M296.83,288.08c-1.75-1-3.95-.85-6.19.43-3.48,2-6.48,6.5-7.79,11.2a4.73,4.73,0,0,0,1.69.21c1.21-4.19,3.88-8.14,6.95-9.93a5.81,5.81,0,0,1,2.82-.86,3.24,3.24,0,0,1,1.66.43c1.48.85,2.34,2.94,2.34,5.7a10.49,10.49,0,0,1-.08,1.37l1.62.93a16.4,16.4,0,0,0,.17-2.3C300,291.87,298.85,289.25,296.83,288.08Z" transform="translate(-2.48 -3.14)"/><path class="cls-9" d="M299.69,298.45c0,.13-.05.26-.08.4l-.3-.18Z" transform="translate(-2.48 -3.14)"/><path class="cls-4" d="M268.17,288.7c-1.27.74-1.27,1.93,0,2.67a5,5,0,0,0,4.6,0c1.28-.74,1.28-1.93,0-2.67A5,5,0,0,0,268.17,288.7Z" transform="translate(-2.48 -3.14)"/><path class="cls-9" d="M283,280.07c-1.76-1-3.95-.86-6.2.43-3.47,2-6.47,6.5-7.78,11.2a4.73,4.73,0,0,0,1.69.21c1.21-4.19,3.87-8.14,6.95-9.93a5.83,5.83,0,0,1,2.82-.87,3.27,3.27,0,0,1,1.66.44c1.48.85,2.34,2.93,2.34,5.7a12.59,12.59,0,0,1-.08,1.37l1.61.93a15,15,0,0,0,.17-2.3C286.14,283.86,285,281.24,283,280.07Z" transform="translate(-2.48 -3.14)"/><path class="cls-4" d="M254.29,280.69a1.42,1.42,0,0,0,0,2.67,5.1,5.1,0,0,0,4.6,0c1.28-.74,1.28-1.94,0-2.67A5,5,0,0,0,254.29,280.69Z" transform="translate(-2.48 -3.14)"/><path class="cls-9" d="M269.08,272.06c-1.75-1-3.95-.86-6.19.43-3.47,2-6.48,6.5-7.79,11.2a4.82,4.82,0,0,0,1.7.21c1.2-4.19,3.87-8.14,6.94-9.93a5.83,5.83,0,0,1,2.83-.87,3.27,3.27,0,0,1,1.66.44c1.48.85,2.33,2.93,2.33,5.7a10.49,10.49,0,0,1-.08,1.37l1.62.93a16.4,16.4,0,0,0,.17-2.3C272.27,275.85,271.11,273.23,269.08,272.06Z" transform="translate(-2.48 -3.14)"/><path class="cls-4" d="M240.42,272.68c-1.27.74-1.27,1.93,0,2.67a5,5,0,0,0,4.6,0c1.28-.74,1.28-1.93,0-2.67A5,5,0,0,0,240.42,272.68Z" transform="translate(-2.48 -3.14)"/><path class="cls-9" d="M255.21,264.05c-1.75-1-4-.86-6.19.43-3.48,2-6.48,6.5-7.79,11.2a4.76,4.76,0,0,0,1.7.21c1.2-4.19,3.87-8.14,6.94-9.93a5.81,5.81,0,0,1,2.82-.86,3.3,3.3,0,0,1,1.67.43c1.48.85,2.33,2.94,2.33,5.7a10.49,10.49,0,0,1-.08,1.37l1.62.93a16.4,16.4,0,0,0,.17-2.3C258.4,267.84,257.24,265.22,255.21,264.05Z" transform="translate(-2.48 -3.14)"/><path class="cls-4" d="M226.54,264.67a1.42,1.42,0,0,0,0,2.67,5.06,5.06,0,0,0,4.61,0c1.27-.74,1.27-1.93,0-2.67A5.06,5.06,0,0,0,226.54,264.67Z" transform="translate(-2.48 -3.14)"/><path class="cls-9" d="M241.34,256c-1.76-1-4-.86-6.2.43-3.47,2-6.47,6.5-7.78,11.2a4.73,4.73,0,0,0,1.69.21c1.21-4.19,3.87-8.14,6.95-9.93a5.78,5.78,0,0,1,2.82-.86,3.26,3.26,0,0,1,1.66.43c1.48.85,2.34,2.94,2.34,5.7a12.59,12.59,0,0,1-.08,1.37l1.61.93a15,15,0,0,0,.17-2.3C244.52,259.83,243.36,257.21,241.34,256Z" transform="translate(-2.48 -3.14)"/><path class="cls-4" d="M212.67,256.66c-1.27.74-1.27,1.93,0,2.67a5,5,0,0,0,4.6,0c1.28-.74,1.28-1.93,0-2.67A5,5,0,0,0,212.67,256.66Z" transform="translate(-2.48 -3.14)"/><path class="cls-9" d="M227.46,248c-1.75-1-4-.86-6.19.43-3.48,2-6.48,6.5-7.79,11.2a4.79,4.79,0,0,0,1.7.21c1.2-4.19,3.87-8.14,6.94-9.93a5.81,5.81,0,0,1,2.82-.86,3.3,3.3,0,0,1,1.67.43c1.48.85,2.33,2.94,2.33,5.7a10.49,10.49,0,0,1-.08,1.37l1.62.93a16.4,16.4,0,0,0,.17-2.3C230.65,251.82,229.49,249.2,227.46,248Z" transform="translate(-2.48 -3.14)"/><path class="cls-4" d="M198.8,248.65c-1.27.74-1.27,1.93,0,2.67a5,5,0,0,0,4.6,0c1.28-.74,1.28-1.93,0-2.67A5,5,0,0,0,198.8,248.65Z" transform="translate(-2.48 -3.14)"/><path class="cls-9" d="M213.59,240c-1.76-1-4-.86-6.2.43-3.47,2-6.47,6.5-7.78,11.2a4.73,4.73,0,0,0,1.69.21c1.21-4.19,3.88-8.14,6.95-9.93a5.81,5.81,0,0,1,2.82-.86,3.24,3.24,0,0,1,1.66.43c1.48.85,2.34,2.94,2.34,5.7a10.49,10.49,0,0,1-.08,1.37l1.61.93a15,15,0,0,0,.18-2.3C216.78,243.81,215.61,241.19,213.59,240Z" transform="translate(-2.48 -3.14)"/><path class="cls-4" d="M184.92,240.64a1.42,1.42,0,0,0,0,2.67,5,5,0,0,0,4.6,0c1.28-.74,1.28-1.93,0-2.67A5,5,0,0,0,184.92,240.64Z" transform="translate(-2.48 -3.14)"/><path class="cls-9" d="M199.71,232c-1.75-1-4-.86-6.19.43-3.47,2-6.48,6.5-7.79,11.2a4.82,4.82,0,0,0,1.7.21c1.21-4.19,3.87-8.14,6.94-9.93a5.81,5.81,0,0,1,2.83-.86,3.26,3.26,0,0,1,1.66.43c1.48.85,2.33,2.94,2.33,5.7a10.49,10.49,0,0,1-.08,1.37l1.62.93a16.4,16.4,0,0,0,.17-2.3C202.9,235.8,201.74,233.18,199.71,232Z" transform="translate(-2.48 -3.14)"/><path class="cls-4" d="M171.05,232.63c-1.27.74-1.27,1.93,0,2.67a5,5,0,0,0,4.6,0c1.28-.74,1.28-1.93,0-2.67A5,5,0,0,0,171.05,232.63Z" transform="translate(-2.48 -3.14)"/><path class="cls-9" d="M185.84,224c-1.75-1-4-.86-6.19.43-3.47,2-6.48,6.5-7.79,11.2a4.79,4.79,0,0,0,1.7.21c1.2-4.19,3.87-8.14,6.94-9.93a5.83,5.83,0,0,1,2.83-.87,3.27,3.27,0,0,1,1.66.44c1.48.85,2.33,2.93,2.33,5.7a10.49,10.49,0,0,1-.08,1.37l1.62.93a16.4,16.4,0,0,0,.17-2.3C189,227.79,187.87,225.17,185.84,224Z" transform="translate(-2.48 -3.14)"/><path class="cls-4" d="M157.17,224.62a1.42,1.42,0,0,0,0,2.67,5.06,5.06,0,0,0,4.61,0c1.27-.74,1.27-1.93,0-2.67A5.06,5.06,0,0,0,157.17,224.62Z" transform="translate(-2.48 -3.14)"/><path class="cls-9" d="M172,216c-1.76-1-3.95-.86-6.2.43-3.47,2-6.48,6.5-7.78,11.2a4.73,4.73,0,0,0,1.69.21c1.21-4.19,3.87-8.14,6.95-9.93a5.78,5.78,0,0,1,2.82-.86,3.26,3.26,0,0,1,1.66.43c1.48.85,2.34,2.94,2.34,5.7a12.59,12.59,0,0,1-.08,1.37l1.61.93a15,15,0,0,0,.17-2.3C175.15,219.78,174,217.16,172,216Z" transform="translate(-2.48 -3.14)"/><line class="cls-10" x1="258.82" y1="292.19" x2="182.45" y2="336.28"/><line class="cls-10" x1="249.57" y1="286.85" x2="173.2" y2="330.94"/><line class="cls-10" x1="240.32" y1="281.51" x2="163.95" y2="325.6"/><line class="cls-10" x1="231.07" y1="276.17" x2="154.7" y2="320.26"/><line class="cls-10" x1="221.82" y1="270.83" x2="145.45" y2="314.92"/><line class="cls-10" x1="212.57" y1="265.49" x2="136.2" y2="309.58"/><line class="cls-10" x1="203.32" y1="260.15" x2="126.95" y2="304.24"/><line class="cls-10" x1="194.07" y1="254.81" x2="117.7" y2="298.9"/><line class="cls-10" x1="184.82" y1="249.47" x2="108.45" y2="293.56"/><line class="cls-10" x1="175.57" y1="244.13" x2="99.2" y2="288.22"/><line class="cls-10" x1="166.32" y1="238.79" x2="89.95" y2="282.88"/><line class="cls-10" x1="157.07" y1="233.44" x2="80.7" y2="277.54"/><line class="cls-10" x1="147.82" y1="228.1" x2="71.45" y2="272.2"/><line class="cls-11" x1="143.19" y1="225.45" x2="277.32" y2="302.87"/><line class="cls-11" x1="272.62" y1="294.9" x2="191.84" y2="341.62"/><g class="cls-12"><path class="cls-13" d="M234.69,288.28c-.7-1.07-2-1.5-3.12-2-.45-.2-1-.48-1.51-.76-.7-1.13-1.63-3-.4-3.21.74-.14,2.17.64,3,.88.45.13.35-.53,0-.65-1.36-.53-4-2.22-4.52.09a3.54,3.54,0,0,0,.32,2.13,4.61,4.61,0,0,0-2-.37c-.64.06-1.19.08-1.41.83-.13.41.05.59.08.9a.79.79,0,0,0,.64.66c-.07,0-.28,0-.72,0-1,0-3.6-.68-4.21.52-.25.49.33,1.18.24,1.37s-1.91.72-2.24.92c-.15.09-.05.61-.13.66a22.91,22.91,0,0,1-2.78,0c-1.53.12-5.32-.45-4.82,1.91.05.25.26.22.31.63a2,2,0,0,0,.11.57c-.05,0-.16,0-.36.32s-.66.13-.85.36c-.72.91.39,1.23-.52,1.8-1.27.8-3.92-.82-5.22.07-1.15.8.35,3.09-1.69,3.13-.45,0-.19.67.15.7,1.91.17,1.7-.19,2.07-1.75.59-2.53,4.37-.78,6.5-1.37a.37.37,0,0,0,.15-.56c-.56-.9.09-1.39.93-1.78a.38.38,0,0,0,.16-.56c-.23-.41-1-1.67-.54-2.27a11.69,11.69,0,0,1,2.25-.26,47.91,47.91,0,0,1,4.94-.09.35.35,0,0,0,.32-.47c-.24-.53,1.9-.87,2.37-1a.35.35,0,0,0,.21-.45c-1-2.54,2.74-1.6,4.3-1.36a.36.36,0,0,0,.43-.48c-.24-.85-2.13-1.71.11-2a3.45,3.45,0,0,1,1.71.41,11.86,11.86,0,0,0,3.91,4C234.33,290.52,235.83,290,234.69,288.28Zm-.69.46c.47.62-1,.11-1.18,0a5.52,5.52,0,0,1-2-2.08c.45.25.86.47,1.16.61A4.5,4.5,0,0,1,234,288.74Z" transform="translate(-2.48 -3.14)"/><path class="cls-13" d="M196.49,304.37c-.27-1.11-.31-2.32.72-2.45.49-.06.14-.73-.23-.75-1.38,0-1.81,1.16-1.63,2.6a8.48,8.48,0,0,0-1.72-.58c-.9-.17-1.48-.19-1.77.72-.18.55.26.9.22,1.4-.05.72.68.42-.41.71a6.39,6.39,0,0,1-1.26-.14c-1.1,0-1.19,0-1.86.58s1,.85-1,.53a4.18,4.18,0,0,0-1.57-.22c-.73.17-1.12.38-1,1.19.06.37.85.85.84,1.08,0,1.76-1.91.27-2.62,0a.32.32,0,0,0-.45.27c0,.87.58,1.18-.69,1.25-.15,0-1-.47-1.3-.48-.81,0-1.55,1.06-2.61,1-.29,0-.39.24-.3.47.29.79.72,1.27-.88,2,0,0-1.88-.23-1.84-.23-.46,0-.16.74.19.77.73.05,3.2,1.09,3.93.11.53-.73-.53-1.57-.26-2-.18.3,1.41-.43,1.58-.49a4.35,4.35,0,0,1,1.24-.34c.22,0,.4.36.64.35s.63.15.91,0,.35-.52.46-.59c.28-.19-.36-.41.19-.6.4-.14.75.27,1.12.38.6.19,1.5.63,2,0,.67-.83-.55-1.41-.44-2,.26-1.25,2-.3,2.86-.86a.33.33,0,0,0,.12-.38c-.51-1.73,2.63-.38,3.61-.56.18,0,.37-.15.34-.36s-.39-1.07-.39-1.08c.25-1,1.68-.93,2.33-.75.64,2.1,2.31,4.22,4.13,3.66a.33.33,0,0,0,.23-.32C199.81,306.78,198.19,305.35,196.49,304.37Zm.66,1.73c-.06-.11-.15-.29-.24-.5a4.41,4.41,0,0,1,1.28,1.26C198.54,307.91,197.32,306.39,197.15,306.1Z" transform="translate(-2.48 -3.14)"/><path class="cls-13" d="M224.25,315.64c-.71-1.07-2-1.5-3.12-2-.46-.21-1-.49-1.51-.77-.71-1.13-1.64-3-.4-3.2.74-.14,2.17.63,3,.87.45.14.34-.52,0-.64-1.36-.54-4-2.22-4.52.09a3.53,3.53,0,0,0,.31,2.13,4.56,4.56,0,0,0-2-.37c-.65.06-1.19.08-1.42.83-.12.41.06.59.08.9a.79.79,0,0,0,.65.66c-.08,0-.28,0-.73-.06-1,0-3.59-.67-4.2.53-.26.49.32,1.18.24,1.36s-1.92.72-2.25.92c-.14.1,0,.62-.13.66a19.43,19.43,0,0,1-2.78,0c-1.53.13-5.31-.44-4.82,1.91.06.26.26.22.31.64a1.9,1.9,0,0,0,.12.57c-.06,0-.17,0-.37.32s-.65.12-.84.36c-.73.91.38,1.23-.52,1.79-1.28.8-3.93-.81-5.22.08s.34,3.08-1.69,3.12c-.45,0-.19.68.15.71,1.9.16,1.7-.2,2.06-1.75.6-2.54,4.38-.79,6.5-1.38.25-.06.27-.37.16-.55-.56-.9.09-1.4.93-1.79a.36.36,0,0,0,.15-.55c-.22-.41-1-1.68-.54-2.27a11.8,11.8,0,0,1,2.26-.26,45.2,45.2,0,0,1,4.94-.09.35.35,0,0,0,.32-.47c-.24-.53,1.89-.87,2.37-1a.34.34,0,0,0,.2-.45c-1-2.53,2.74-1.6,4.3-1.35a.37.37,0,0,0,.44-.48c-.25-.86-2.13-1.71.1-2a3.72,3.72,0,0,1,1.72.41,12,12,0,0,0,3.9,4C223.88,317.88,225.39,317.37,224.25,315.64Zm-.69.46c.46.63-1,.12-1.19,0a5.63,5.63,0,0,1-2-2.09c.46.25.87.48,1.17.61A4.73,4.73,0,0,1,223.56,316.1Z" transform="translate(-2.48 -3.14)"/><path class="cls-13" d="M247.72,296.24c-.28-1.11-.31-2.32.71-2.45.5-.06.15-.73-.22-.75-1.38,0-1.82,1.16-1.64,2.61a7.75,7.75,0,0,0-1.71-.59c-.9-.17-1.48-.19-1.78.72-.17.55.27.9.23,1.4-.05.72.67.42-.41.71a6.31,6.31,0,0,1-1.26-.14c-1.1,0-1.2,0-1.86.58s1,.85-1,.53a4.13,4.13,0,0,0-1.56-.22c-.73.17-1.12.38-1,1.19.06.37.84.85.84,1.08,0,1.76-1.91.27-2.63,0a.33.33,0,0,0-.45.27c0,.87.58,1.18-.68,1.25-.15,0-1-.47-1.3-.48-.81,0-1.56,1.06-2.62,1-.29,0-.38.24-.3.47.3.79.73,1.27-.87,2,0,0-1.88-.23-1.84-.23-.46,0-.17.74.19.77.73.05,3.19,1.09,3.92.11.54-.73-.52-1.57-.25-2-.18.3,1.4-.43,1.58-.49a4.38,4.38,0,0,1,1.23-.34c.22,0,.41.36.64.35s.64.15.92,0,.35-.52.46-.59c.28-.19-.36-.41.19-.6.4-.14.74.27,1.12.38.6.19,1.5.63,2,0,.66-.83-.56-1.41-.44-2,.25-1.25,2-.3,2.86-.86a.34.34,0,0,0,.11-.38c-.5-1.73,2.63-.38,3.62-.56.18,0,.36-.15.34-.36s-.39-1.07-.39-1.08c.25-1,1.67-.93,2.33-.75.64,2.1,2.3,4.22,4.12,3.66a.31.31,0,0,0,.23-.32C251,298.65,249.42,297.22,247.72,296.24Zm.66,1.73a4,4,0,0,1-.24-.5,4.41,4.41,0,0,1,1.28,1.26C249.77,299.78,248.55,298.26,248.38,298Z" transform="translate(-2.48 -3.14)"/><path class="cls-13" d="M178.28,257.09c-.71-1.07-2-1.49-3.12-2-.46-.21-1-.49-1.51-.77-.71-1.13-1.64-3-.4-3.2.73-.14,2.17.64,3,.87.44.14.34-.52,0-.64-1.36-.54-4-2.22-4.52.09a3.45,3.45,0,0,0,.31,2.13,4.56,4.56,0,0,0-2-.37c-.65.06-1.19.08-1.42.83-.12.41,0,.59.08.9a.79.79,0,0,0,.65.66,6.28,6.28,0,0,0-.73-.05c-1,0-3.59-.68-4.21.52-.25.49.33,1.18.25,1.36s-1.92.72-2.25.93c-.15.09,0,.61-.13.65a19.43,19.43,0,0,1-2.78,0c-1.53.13-5.31-.44-4.82,1.92.06.25.26.21.31.63a1.9,1.9,0,0,0,.12.57c-.06,0-.17,0-.37.32s-.65.12-.84.36c-.73.91.38,1.23-.52,1.79-1.28.8-3.93-.81-5.23.08s.35,3.08-1.68,3.12c-.45,0-.19.68.15.71,1.9.16,1.69-.2,2.06-1.75.6-2.53,4.38-.79,6.5-1.37a.36.36,0,0,0,.15-.56c-.55-.9.1-1.4.94-1.79a.36.36,0,0,0,.15-.55c-.22-.41-1-1.68-.54-2.27a11.8,11.8,0,0,1,2.26-.26,45.16,45.16,0,0,1,4.94-.09.34.34,0,0,0,.31-.47c-.23-.53,1.9-.87,2.38-1a.35.35,0,0,0,.2-.45c-1-2.54,2.74-1.61,4.3-1.36a.37.37,0,0,0,.44-.48c-.25-.86-2.14-1.71.1-2a3.72,3.72,0,0,1,1.72.41,12,12,0,0,0,3.9,4C177.91,259.33,179.42,258.82,178.28,257.09Zm-.69.46c.46.63-1,.12-1.19,0a5.63,5.63,0,0,1-2-2.09c.46.25.87.48,1.17.62A4.62,4.62,0,0,1,177.59,257.55Z" transform="translate(-2.48 -3.14)"/><path class="cls-13" d="M140.08,273.18c-.28-1.1-.31-2.31.71-2.44.49-.07.14-.74-.22-.75-1.39,0-1.82,1.16-1.64,2.6a7.84,7.84,0,0,0-1.71-.58c-.9-.17-1.48-.2-1.78.72-.18.54.26.9.23,1.39,0,.73.67.43-.42.71a6.35,6.35,0,0,1-1.26-.13,1.91,1.91,0,0,0-1.86.58c-.68.57,1,.85-1,.53a4,4,0,0,0-1.56-.22c-.74.17-1.12.38-1,1.19,0,.36.84.85.83,1.08,0,1.76-1.9.27-2.62,0a.34.34,0,0,0-.45.28c0,.87.58,1.17-.68,1.25-.16,0-1-.48-1.3-.48-.82,0-1.56,1.06-2.62,1-.29,0-.39.23-.3.47.29.79.72,1.27-.87,2,0,0-1.88-.24-1.84-.24-.46,0-.17.75.19.77.72.06,3.19,1.1,3.92.11.54-.72-.52-1.56-.26-2-.17.31,1.41-.43,1.58-.49a4.7,4.7,0,0,1,1.24-.34c.22,0,.41.36.64.36s.64.15.92,0,.34-.51.45-.59c.29-.18-.36-.41.19-.59s.75.26,1.13.38c.59.19,1.5.63,2,0,.66-.83-.56-1.41-.45-2,.26-1.25,2.05-.3,2.86-.86a.33.33,0,0,0,.12-.38c-.5-1.73,2.63-.38,3.62-.56.17,0,.36-.15.34-.36s-.4-1.07-.39-1.09c.24-1,1.67-.92,2.33-.74.63,2.1,2.3,4.22,4.12,3.65a.31.31,0,0,0,.23-.31C143.4,275.6,141.77,274.16,140.08,273.18Zm.65,1.73a4.87,4.87,0,0,1-.23-.49,4.21,4.21,0,0,1,1.27,1.26C142.13,276.73,140.91,275.21,140.73,274.91Z" transform="translate(-2.48 -3.14)"/><path class="cls-13" d="M167.83,284.46c-.7-1.07-2-1.5-3.12-2-.45-.21-1-.49-1.51-.77-.7-1.13-1.64-3-.4-3.2.74-.14,2.17.63,3,.87.45.13.35-.52,0-.65-1.36-.53-4-2.22-4.52.1a3.48,3.48,0,0,0,.32,2.13,4.47,4.47,0,0,0-2-.37c-.64.05-1.19.07-1.41.82-.13.42,0,.6.08.91a.8.8,0,0,0,.64.66,4.84,4.84,0,0,0-.72-.06c-1,0-3.6-.67-4.21.52-.25.5.32,1.18.24,1.37s-1.92.72-2.24.92c-.15.09-.05.61-.13.66a21,21,0,0,1-2.78,0c-1.53.13-5.32-.44-4.82,1.91,0,.26.26.22.3.63a2.45,2.45,0,0,0,.12.58c-.06,0-.16,0-.36.31s-.66.13-.85.37c-.72.91.39,1.22-.52,1.79-1.27.8-3.92-.82-5.22.08s.35,3.08-1.69,3.12c-.45,0-.19.67.15.7,1.91.17,1.7-.19,2.06-1.74.6-2.54,4.38-.79,6.51-1.38a.36.36,0,0,0,.15-.55c-.56-.9.09-1.4.93-1.79a.37.37,0,0,0,.16-.55c-.23-.42-1-1.68-.54-2.27a12.49,12.49,0,0,1,2.25-.27,45.24,45.24,0,0,1,4.94-.08.35.35,0,0,0,.32-.47c-.24-.53,1.9-.87,2.37-1a.35.35,0,0,0,.21-.45c-1-2.53,2.73-1.6,4.3-1.35a.37.37,0,0,0,.43-.48c-.24-.86-2.13-1.72.11-2a3.71,3.71,0,0,1,1.71.41,12,12,0,0,0,3.91,4C167.47,286.7,169,286.19,167.83,284.46Zm-.69.46c.47.62-1,.12-1.18,0a5.47,5.47,0,0,1-2-2.09c.45.25.86.47,1.16.61A4.58,4.58,0,0,1,167.14,284.92Z" transform="translate(-2.48 -3.14)"/><path class="cls-13" d="M191.31,265.05c-.28-1.1-.32-2.31.71-2.44.49-.07.14-.74-.23-.75-1.38,0-1.81,1.16-1.63,2.6a8.48,8.48,0,0,0-1.72-.58c-.89-.17-1.48-.2-1.77.72-.18.54.26.9.23,1.39-.05.73.67.43-.42.71a5.68,5.68,0,0,1-1.26-.13,1.91,1.91,0,0,0-1.86.58c-.68.57,1,.85-1,.53a4,4,0,0,0-1.57-.22c-.73.17-1.12.38-1,1.19.05.36.84.85.83,1.08,0,1.76-1.9.27-2.62,0a.34.34,0,0,0-.45.28c0,.87.58,1.17-.69,1.25-.15,0-1-.48-1.3-.48-.81,0-1.55,1.06-2.61,1-.29,0-.39.23-.3.47.29.79.72,1.27-.88,2,0,0-1.88-.24-1.84-.24-.45,0-.16.75.19.77.73.06,3.2,1.1,3.93.12.54-.73-.52-1.57-.26-2-.17.31,1.41-.43,1.58-.49a4.35,4.35,0,0,1,1.24-.33c.22,0,.4.35.64.35s.63.15.91,0,.35-.51.46-.59c.28-.18-.36-.41.19-.59.4-.14.75.26,1.12.38.6.19,1.5.63,2,0,.67-.83-.55-1.41-.44-2,.26-1.25,2-.3,2.86-.86a.33.33,0,0,0,.12-.38c-.51-1.73,2.63-.38,3.62-.56.17,0,.36-.15.33-.36s-.39-1.07-.39-1.09c.25-1,1.68-.92,2.33-.74.64,2.1,2.31,4.22,4.13,3.65a.32.32,0,0,0,.23-.31C194.62,267.47,193,266,191.31,265.05Zm.65,1.73a4.52,4.52,0,0,1-.24-.49,4.28,4.28,0,0,1,1.28,1.26C193.35,268.6,192.13,267.08,192,266.78Z" transform="translate(-2.48 -3.14)"/><path class="cls-13" d="M173.63,303.29c-.7-1.07-2-1.5-3.12-2-.46-.21-1-.49-1.51-.77-.7-1.13-1.64-3-.4-3.2.74-.14,2.17.63,3,.87.45.13.35-.52,0-.64-1.36-.54-4-2.23-4.52.09a3.54,3.54,0,0,0,.31,2.13,4.4,4.4,0,0,0-2-.37c-.64.06-1.19.07-1.41.83-.13.41.05.59.08.9a.8.8,0,0,0,.64.66,7.15,7.15,0,0,0-.72-.06c-1,0-3.6-.67-4.21.53-.25.49.32,1.18.24,1.36s-1.92.72-2.24.92c-.15.09-.05.61-.13.66a19.45,19.45,0,0,1-2.78,0c-1.53.13-5.32-.44-4.82,1.91.05.26.26.22.3.64a2.45,2.45,0,0,0,.12.57c-.06,0-.16,0-.36.32s-.66.12-.85.36c-.72.91.39,1.23-.52,1.79-1.27.8-3.92-.82-5.22.08-1.15.79.35,3.08-1.69,3.12-.45,0-.19.67.15.7,1.91.17,1.7-.19,2.06-1.74.6-2.54,4.38-.79,6.51-1.38.24-.06.26-.37.15-.55-.56-.9.09-1.4.93-1.79a.37.37,0,0,0,.16-.55c-.23-.41-1-1.68-.54-2.27a12.49,12.49,0,0,1,2.25-.27,45.24,45.24,0,0,1,4.94-.08.35.35,0,0,0,.32-.47c-.24-.53,1.9-.87,2.37-1a.34.34,0,0,0,.21-.45c-1-2.53,2.73-1.6,4.3-1.35a.37.37,0,0,0,.43-.48c-.24-.86-2.13-1.72.11-2a3.71,3.71,0,0,1,1.71.41,12,12,0,0,0,3.91,4C173.27,305.53,174.77,305,173.63,303.29Zm-.69.46c.47.63-1,.12-1.18,0a5.47,5.47,0,0,1-2-2.09c.45.25.86.48,1.16.61A4.58,4.58,0,0,1,172.94,303.75Z" transform="translate(-2.48 -3.14)"/><path class="cls-13" d="M192.23,285.61c-.28-1.11-.31-2.32.71-2.45.49-.06.14-.73-.23-.75-1.38,0-1.81,1.16-1.63,2.6a8.48,8.48,0,0,0-1.72-.58c-.89-.17-1.47-.19-1.77.72-.18.55.26.9.23,1.4,0,.72.67.42-.42.71a6.39,6.39,0,0,1-1.26-.14,1.93,1.93,0,0,0-1.86.58c-.68.58,1,.85-1,.53a4.18,4.18,0,0,0-1.57-.22c-.73.17-1.12.38-1,1.19.05.37.84.85.83,1.08,0,1.76-1.9.27-2.62,0a.33.33,0,0,0-.45.27c0,.87.58,1.18-.69,1.25-.15,0-1-.47-1.29-.48-.82,0-1.56,1.06-2.62,1-.29,0-.39.24-.3.47.29.79.72,1.27-.88,2,0,0-1.88-.23-1.83-.23-.46,0-.17.74.18.77.73.05,3.2,1.09,3.93.11.54-.73-.52-1.57-.26-2-.17.3,1.41-.43,1.58-.49a4.35,4.35,0,0,1,1.24-.34c.22,0,.4.36.64.35s.64.15.92,0,.34-.52.45-.59c.28-.19-.36-.41.19-.6.4-.14.75.27,1.12.38.6.19,1.5.63,2,0,.66-.83-.56-1.41-.45-2,.26-1.25,2-.3,2.86-.86a.33.33,0,0,0,.12-.38c-.51-1.73,2.63-.38,3.62-.56.17,0,.36-.15.33-.36s-.39-1.07-.39-1.08c.25-1,1.68-.93,2.34-.75.63,2.1,2.3,4.22,4.12,3.66a.33.33,0,0,0,.23-.32C195.54,288,193.92,286.59,192.23,285.61Zm.65,1.73c-.06-.11-.15-.29-.24-.5a4.28,4.28,0,0,1,1.28,1.26C194.27,289.15,193.05,287.63,192.88,287.34Z" transform="translate(-2.48 -3.14)"/><path class="cls-13" d="M213.52,271.28a1,1,0,0,0,0-.42c-.3-1.08-1.54-.27-1.75.39s.26.9.22,1.39c0,.72.68.43-.41.71a7.19,7.19,0,0,1-1.26-.13c-1.1-.05-1.2,0-1.86.58s1,.84-1,.52a4.2,4.2,0,0,0-1.57-.21c-.73.16-1.12.37-1,1.19.06.36.85.85.84,1.08,0,1.75-1.91.27-2.62,0a.34.34,0,0,0-.46.28c0,.86.58,1.17-.68,1.25-.15,0-1-.48-1.3-.48-.81,0-1.55,1.05-2.61,1-.29,0-.39.23-.31.47.3.79.73,1.27-.87,1.95,0,0-1.88-.23-1.84-.23-.46,0-.16.75.19.77.73.06,3.2,1.1,3.93.11.53-.72-.53-1.56-.26-2-.18.31,1.41-.43,1.58-.49a4.74,4.74,0,0,1,1.23-.34c.23,0,.41.36.64.36s.64.15.92,0,.35-.51.46-.59c.28-.18-.36-.41.19-.6s.75.27,1.12.39c.6.19,1.5.63,2,0,.67-.83-.56-1.41-.44-2,.26-1.25,2-.3,2.86-.86a.33.33,0,0,0,.11-.38c-.5-1.73,2.64-.38,3.62-.56.18,0,.37-.15.34-.36a5.22,5.22,0,0,1-.14-2.23A4.05,4.05,0,0,0,213.52,271.28Z" transform="translate(-2.48 -3.14)"/></g></g><g id="Character-2" data-name="Character"><path class="cls-14" d="M86.29,59.06C91,64.63,98.65,72.15,103,77.63a16,16,0,0,1,3.54,10.13c0,2.73-.78,5-3.45,3.84-1.93-.84-3.16-1.84-6-4.61-2.53-2.5-14.77-14-14.77-14s-2.3-14.09-6.08-15.24-7-7.18-7-7.18C75.46,50,80.38,52,86.29,59.06Z" transform="translate(-2.48 -3.14)"/><path class="cls-15" d="M128.89,204.64l21.87,32a1.18,1.18,0,0,0,2.15-.6L155,197.11Z" transform="translate(-2.48 -3.14)"/><path class="cls-9" d="M152.91,236.05a1.18,1.18,0,0,1-2.15.6l-4.27-6.25h0a6.54,6.54,0,0,0,6.45-2.17l.43-.51Z" transform="translate(-2.48 -3.14)"/><path class="cls-3" d="M111.1,39.58l1,3.46,1.18,4.16L155,197.11a17.27,17.27,0,0,1-9.61,8.24c-6.16,2.41-13.24,2.13-16.52-.72L87.41,55.83l-2.22-8C86.92,52.94,112.76,44.7,111.1,39.58Z" transform="translate(-2.48 -3.14)"/><path class="cls-7" d="M114.81,52.73,117,60.45c.7,2.22-3.68,5-9,7-7.12,2.71-16,4.11-16.93,1.18L89.4,63l-.53-2.05c.92,2.94,9.8,1.54,16.92-1.17,5.14-1.95,9.38-4.59,9.07-6.76v0A.45.45,0,0,0,114.81,52.73Z" transform="translate(-2.48 -3.14)"/><path class="cls-3" d="M115.33,54.66C117,59.81,91,68,89.38,62.84l-2.17-7.72c1.63,5.14,27.57-3,26-8.18Z" transform="translate(-2.48 -3.14)"/><path class="cls-7" d="M111.1,39.58l2.14,7.62c1.63,5-23.34,13.19-25.83,8.63a.91.91,0,0,1-.12-.28l-2.1-7.69C86.92,52.94,112.76,44.7,111.1,39.58Z" transform="translate(-2.48 -3.14)"/><path class="cls-4" d="M87.41,55.83l-2.22-8c.78,2.29,6.49,1.87,12.36.24h0l43,158.59,10.26,30-21.87-32h0Z" transform="translate(-2.48 -3.14)"/><path class="cls-14" d="M102,7.22l9.06,32.36c.71,2.19-3.6,5-8.91,7-7.12,2.73-16,4.2-17,1.29l0,0L76.46,16.7C73.83,9.61,86.69,2.64,95.27,3.17,98.48,3.35,101.06,4.57,102,7.22Z" transform="translate(-2.48 -3.14)"/><path class="cls-9" d="M64.08,45.45h0A18.29,18.29,0,0,1,45.79,27.16v-1a15.5,15.5,0,0,1,15.5-15.5h5.58a15.5,15.5,0,0,1,15.5,15.5v1A18.29,18.29,0,0,1,64.08,45.45Z" transform="translate(-2.48 -3.14)"/><path class="cls-9" d="M38.36,47.31h0A8.31,8.31,0,0,0,46.67,39V22.49h0a8.31,8.31,0,0,0-8.31,8.3Z" transform="translate(-2.48 -3.14)"/><path class="cls-9" d="M82.9,226.38a49.25,49.25,0,0,0,7,6.07,3,3,0,0,1,1,1c.33.68.84,2.38-2.28,3.47a11.62,11.62,0,0,1-9.63-.93c-2.56-1.6-2.68-4.94-5.1-6.84-1.79-1.41-4-1.77-5.47-3.62-1-1.28-.75-3-.22-5.1.57-2.31.84-4.05,1.6-3.87l-.13,1.06c1,1.52,5.89,2,8.09.92A92.13,92.13,0,0,0,82.9,226.38Z" transform="translate(-2.48 -3.14)"/><path class="cls-15" d="M85.07,228.53h0c-.75-.68-1.47-1.38-2.17-2.15a60,60,0,0,1-4-5.94,9.15,9.15,0,0,1-1.72-4.34c-.05-2,.14-5.67.14-5.67L70,209.94l-.36,7.67h0c-.19,1.74,1.25,3.29,3.8,5.48s5.78,7.31,8.08,8.6,4,1.24,4.94.58S87.55,231.07,85.07,228.53Z" transform="translate(-2.48 -3.14)"/><path class="cls-9" d="M58.55,233.69a48.7,48.7,0,0,0,7,6.07,3.09,3.09,0,0,1,1,1c.33.68.84,2.38-2.28,3.47a11.62,11.62,0,0,1-9.63-.93c-2.57-1.6-2.68-4.94-5.1-6.84-1.79-1.41-4-1.77-5.47-3.62-1-1.28-.75-3-.22-5.1.57-2.31.83-4.05,1.6-3.87l-.13,1.06c.95,1.52,5.89,2,8.09.92A89.72,89.72,0,0,0,58.55,233.69Z" transform="translate(-2.48 -3.14)"/><path class="cls-15" d="M60.71,235.84h0c-.74-.68-1.47-1.38-2.16-2.15a58.84,58.84,0,0,1-4-5.94,10.24,10.24,0,0,1-1.71-4.41c-.14-1.79,0-5.52,0-5.52l-7.32,0-.18,7.08h0c-.19,1.74,1.25,3.29,3.8,5.48s5.77,7.31,8.08,8.6,4,1.24,4.93.58S63.2,238.38,60.71,235.84Z" transform="translate(-2.48 -3.14)"/><path class="cls-16" d="M45.36,99.34c-6.37,13.92.88,66.71.88,66.71-.19,2.26-2.18,5.77-2.42,12.67-.3,8.86,1.28,41.57,1.28,41.57a9.22,9.22,0,0,0,8.34.17s7.55-44.41,9-56.09c1.28-10.19,3.75-34.16,3.75-34.16l5.08,34.11s-2.61,5.69-2.74,10.83c-.19,6.9.83,38.93.83,38.93s3.09,1.08,8.48.29c0,0,7.68-43.34,8.4-51.61C86.69,157.82,83,97.25,83,97.25Z" transform="translate(-2.48 -3.14)"/><path class="cls-9" d="M66.21,130.21l2.07-11.38S77,117,81,113.28c0,0-4.17,5.19-10.35,6.88l-2.33,10,2.3,29.75Z" transform="translate(-2.48 -3.14)"/><path class="cls-17" d="M57.81,50.92h0c-5.6.77-8.6,2-10.4,7.26-1.18,3.44-.86,8.5.33,11.94L52.62,84.4a77.26,77.26,0,0,0-7.26,14.94c14.3,8,33.34,3.73,37.64-2.09.18-1.23-1-7.2-.63-13.53.37-6.76,1.45-14.51.39-18.68-2-7.75-7.38-12.81-13.47-14.44Z" transform="translate(-2.48 -3.14)"/><path class="cls-15" d="M76.36,18.05c1.93,1.14,4.32,6,4.08,16.18-.2,8.64-3,10.77-4.4,11.38s-4.12.24-6.75-.19V50.6s3.64,4.23,3.41,6.6-5.26,2.94-8.66.62A21.94,21.94,0,0,1,58.45,52V39.44s-1.78,2.38-4.69.44-3-6.71-1.33-8.43,5.34-1.17,6,1.2c0,0,4.2.16,9.79-2.92A15.71,15.71,0,0,0,76.36,18.05Z" transform="translate(-2.48 -3.14)"/><path class="cls-9" d="M70.8,32.06a1.09,1.09,0,0,1-1,1.18,1.13,1.13,0,1,1,1-1.18Z" transform="translate(-2.48 -3.14)"/><path class="cls-14" d="M71.09,39.38l2.53.81a1.3,1.3,0,0,1-1.64.9A1.39,1.39,0,0,1,71.09,39.38Z" transform="translate(-2.48 -3.14)"/><path class="cls-9" d="M79.71,28.73l-2.2-1.52a1.28,1.28,0,0,1,1.82-.38A1.41,1.41,0,0,1,79.71,28.73Z" transform="translate(-2.48 -3.14)"/><path class="cls-9" d="M79.2,31.28a1.09,1.09,0,1,1-1.14-1.08A1.11,1.11,0,0,1,79.2,31.28Z" transform="translate(-2.48 -3.14)"/><polygon class="cls-14" points="71.6 27.52 71.77 34.05 75.21 32.98 71.6 27.52"/><path class="cls-14" d="M69.29,45.42c-2.78-.37-8.49-2-9.38-4.27a5.87,5.87,0,0,0,2,2.88c1.71,1.47,7.38,3.11,7.38,3.11Z" transform="translate(-2.48 -3.14)"/><path class="cls-15" d="M113.23,93c-1.7.64-3.4.68-5.72,1.78a10.83,10.83,0,0,1-5,1.42c-2.27.11-8.64-2.6-14.23-5.21A59.08,59.08,0,0,1,72,79.31,119.16,119.16,0,0,1,59.36,61.22c-2-3.41-4-8.37-7.19-9-5.5.58-7.74,10.16-4.17,16.08S57.92,82,64.69,88.54C68,91.72,74,95.16,82.58,98.85a118,118,0,0,0,17.37,6c1.73.45,2.94,1.09,6.18,2.2a14.32,14.32,0,0,0,4.1,1,18.19,18.19,0,0,0,5.2-.55,12.38,12.38,0,0,0,5.7-3.22A7.76,7.76,0,0,0,123,101.2a5.22,5.22,0,0,0-.12-3.57,1.49,1.49,0,0,0-.42-.6,1.78,1.78,0,0,0-1.29-.15,75.11,75.11,0,0,1-7.53,1.21c-2.1.08-3.58-.15-3.32-.48s1.5-.29,3.08-1.19,2.5-2.6,2-3.42S114.93,92.36,113.23,93Z" transform="translate(-2.48 -3.14)"/><path class="cls-15" d="M117.86,69.9s-2.28-1.81-6.6-1.1c-2.09.35-1.29,8.26,5.44,10.47,4.38,1.44,5.27.7,6.68,4.3,0,0,2.65-.55,2-4.58a22.51,22.51,0,0,0-5.33-11.16c-1.93-2.28-2.06-4.2-3-3.55s-.42,2.62-.42,2.62Z" transform="translate(-2.48 -3.14)"/></g><g id="Coffee-2" data-name="Coffee"><path class="cls-9" d="M396,112.73c-16.07-5.92-41.7-5.92-57.24,0s-15.54,15.51,0,21.43,41.17,5.92,57.24,0S412.05,118.65,396,112.73Z" transform="translate(-2.48 -3.14)"/><path class="cls-8" d="M409.31,86.7l-83.5.1,6.33,98.37h.08c.39,3.59,3.74,7.12,10.12,9.86,13.6,5.83,36,5.83,50.09,0,6.6-2.74,10.06-6.27,10.47-9.86H403Z" transform="translate(-2.48 -3.14)"/><path class="cls-1" d="M325.81,86.8l1.29,20a36.91,36.91,0,0,0,7,3.73c18.06,7.48,47.83,7.48,66.51,0,.81-.32,1.48-.67,2.21-1a43,43,0,0,0,5.24-3l1.28-19.85Z" transform="translate(-2.48 -3.14)"/><path class="cls-3" d="M414.59,89.61v-15h-9.73a45.35,45.35,0,0,0-4.28-2c-18.67-7.48-48.45-7.48-66.51,0a44.49,44.49,0,0,0-4.08,2h-9.46v15h0c0,4.9,4.52,9.81,13.54,13.54,18.06,7.48,47.84,7.48,66.51,0C409.92,99.41,414.59,94.51,414.59,89.61Z" transform="translate(-2.48 -3.14)"/><path class="cls-3" d="M400.58,61c-18.67-7.47-48.45-7.47-66.51,0s-18.05,19.61,0,27.08,47.84,7.48,66.51,0S419.26,68.51,400.58,61Z" transform="translate(-2.48 -3.14)"/><g class="cls-18"><path class="cls-5" d="M400.58,61c-18.67-7.47-48.45-7.47-66.51,0s-18.05,19.61,0,27.08,47.84,7.48,66.51,0S419.26,68.51,400.58,61Z" transform="translate(-2.48 -3.14)"/></g><path class="cls-3" d="M402.6,70.34h0l-3.76-13.75H336.28l-3.77,13.75h0c-1.4,3.91,1.88,8,9.87,11,13.57,5.11,36,5.11,50,0C400.65,78.35,404.05,74.25,402.6,70.34Z" transform="translate(-2.48 -3.14)"/><path class="cls-3" d="M389.64,49.59c-12.49-4.54-32.4-4.54-44.48,0s-12.07,11.91,0,16.45,32,4.54,44.48,0S402.13,54.14,389.64,49.59Z" transform="translate(-2.48 -3.14)"/><g class="cls-18"><path class="cls-5" d="M389.64,49.59c-12.49-4.54-32.4-4.54-44.48,0s-12.07,11.91,0,16.45,32,4.54,44.48,0S402.13,54.14,389.64,49.59Z" transform="translate(-2.48 -3.14)"/></g><path class="cls-3" d="M394.68,57.83c0,.17-.35.76-1.38,1.56A20.38,20.38,0,0,1,388.18,62c-5.52,2-13.15,3.16-20.93,3.16S352,64,346.68,62a17.85,17.85,0,0,1-4.95-2.61c-1-.82-1.3-1.43-1.3-1.58,0-.3,1.08-2.23,6.25-4.17s12.79-3.14,20.57-3.14,15.41,1.15,20.93,3.16C393.36,55.54,394.66,57.44,394.68,57.83Z" transform="translate(-2.48 -3.14)"/><g class="cls-19"><path d="M393.3,59.39A20.38,20.38,0,0,1,388.18,62c-5.52,2-13.15,3.16-20.93,3.16S352,64,346.68,62a17.85,17.85,0,0,1-4.95-2.61,17.55,17.55,0,0,1,4.95-2.62c5.29-2,12.79-3.13,20.57-3.13s15.41,1.14,20.93,3.15A19.36,19.36,0,0,1,393.3,59.39Z" transform="translate(-2.48 -3.14)"/></g><path class="cls-9" d="M380.78,59.67c1.82-1,4-1.45,4.94-.94s.18,1.77-1.64,2.82-4,1.46-4.94.94S379,60.7,380.78,59.67Z" transform="translate(-2.48 -3.14)"/><path class="cls-13" d="M329.43,159.09c0,3.66,3.66,7.31,11,10.1,14.64,5.58,38.78,5.58,53.92,0,7.56-2.78,11.35-6.43,11.36-10.08L408,123.45c0,3.88-4,7.75-12,10.71-16.07,5.92-41.7,5.92-57.24,0-7.77-3-11.66-6.83-11.65-10.71Z" transform="translate(-2.48 -3.14)"/><path class="cls-9" d="M362.5,161.2c-1.36-1.83-2.11-4.07-3.21-6a17.91,17.91,0,0,0-9.33-8.21,1.15,1.15,0,0,0-1.45.52c-2,4.13-.78,9.91,3.41,14.11s9.88,5.44,14,3.5c.24-.11.3-.57.11-.68A11.54,11.54,0,0,1,362.5,161.2Z" transform="translate(-2.48 -3.14)"/><path class="cls-9" d="M352.2,145.8a19.94,19.94,0,0,1,5.88,3.62,17.78,17.78,0,0,1,4.25,5.83c1.57,3.32,3.06,5.38,5.36,7.09a1.15,1.15,0,0,0,1.61-.25c2.74-4.14,1.65-10.5-2.87-15-4.29-4.28-10.24-5.51-14.38-3.3A1.13,1.13,0,0,0,352.2,145.8Z" transform="translate(-2.48 -3.14)"/></g></g></svg>