<svg id="Calque_1" data-name="Calque 1" xmlns="http://www.w3.org/2000/svg" viewBox="0 0 169.66 503.03"><defs><style>.cls-1{fill:#ffaaa8;}.cls-2{fill:#1a2e35;}.cls-3{fill:#00c8ac;}.cls-4{fill:#ececec;}.cls-5{opacity:0.1;}.cls-6{fill:#ff9090;}</style></defs><title>pencil</title><path class="cls-1" d="M117.71,437.15l47,68.81a2.54,2.54,0,0,0,4.63-1.29L173.92,421Z" transform="translate(-4.27 -4.04)"/><path class="cls-2" d="M169.34,504.67a2.54,2.54,0,0,1-4.63,1.29l-9.18-13.43h0a14.06,14.06,0,0,0,13.87-4.67l.92-1.09Z" transform="translate(-4.27 -4.04)"/><path class="cls-3" d="M79.47,82.36l2.06,7.43,2.54,9L173.92,421c-4.07,8.46-11.95,14.35-20.66,17.72-13.24,5.18-28.45,4.57-35.52-1.55L28.55,117.29l-4.78-17.14C27.48,111.08,83,93.37,79.47,82.36Z" transform="translate(-4.27 -4.04)"/><path class="cls-4" d="M87.44,110.62l4.6,16.6c1.49,4.77-7.9,10.71-19.44,15.06-15.31,5.82-34.38,8.85-36.37,2.54l-3.41-12.23-1.15-4.39c2,6.31,21.08,3.29,36.38-2.53,11-4.19,20.17-9.87,19.49-14.52v-.05A.93.93,0,0,0,87.44,110.62Z" transform="translate(-4.27 -4.04)"/><path class="cls-3" d="M88.56,114.78c3.48,11.06-52.3,28.65-55.78,17.58l-4.66-16.6c3.49,11.06,59.26-6.52,55.77-17.59Z" transform="translate(-4.27 -4.04)"/><path class="cls-4" d="M79.47,82.36l4.6,16.39c3.5,10.84-50.18,28.34-55.52,18.54a2.15,2.15,0,0,1-.27-.59l-4.51-16.55C27.48,111.08,83,93.37,79.47,82.36Z" transform="translate(-4.27 -4.04)"/><path class="cls-5" d="M28.55,117.29l-4.78-17.14c1.68,4.94,14,4,26.56.52h0l92.34,340.88,22,64.4-47-68.81h0Z" transform="translate(-4.27 -4.04)"/><path class="cls-6" d="M60,12.81,79.47,82.36C81,87.07,71.73,93,60.31,97.38c-15.3,5.87-34.43,9-36.54,2.77,0,0,0,0,0-.06L5,33.18C-.64,17.94,27,3,45.43,4.1,52.33,4.48,57.88,7.11,60,12.81Z" transform="translate(-4.27 -4.04)"/></svg>